<?xml version="1.0" encoding="utf-8"?>
<!-- Generator: Adobe Illustrator 21.0.2, SVG Export Plug-In . SVG Version: 6.00 Build 0)  -->
<svg version="1.1" id="Layer_1" xmlns="http://www.w3.org/2000/svg" xmlns:xlink="http://www.w3.org/1999/xlink" x="0px" y="0px"
	 width="650.8px" height="189.6px" viewBox="0 0 650.8 189.6" style="enable-background:new 0 0 650.8 189.6;" xml:space="preserve"
	>
<style type="text/css">
	.st0{fill:#EF3B2D;}
</style>
<g>
	<g>
		<polygon class="st0" points="248,43.7 231.6,43.7 231.6,143.9 279,143.9 279,129.2 248,129.2 		"/>
		<path class="st0" d="M337.1,86.2c-2.1-3.3-5.1-6-8.9-7.9c-3.9-1.9-7.8-2.9-11.7-2.9c-5.1,0-9.7,0.9-13.9,2.8
			c-4.2,1.9-7.8,4.4-10.8,7.7c-3,3.2-5.3,7-7,11.2c-1.7,4.2-2.5,8.7-2.5,13.4c0,4.8,0.8,9.3,2.5,13.5c1.7,4.2,4,7.9,7,11.2
			c3,3.2,6.6,5.8,10.8,7.7c4.2,1.9,8.8,2.8,13.9,2.8c3.9,0,7.8-1,11.7-2.9c3.9-1.9,6.8-4.5,8.9-7.9v9h15.6V77.2h-15.6V86.2z
			 M335.7,118.7c-1,2.6-2.3,4.8-4,6.7c-1.7,1.9-3.8,3.4-6.2,4.6c-2.4,1.1-5.1,1.7-8.1,1.7c-3,0-5.6-0.6-8-1.7
			c-2.4-1.1-4.4-2.7-6.2-4.6c-1.7-1.9-3-4.2-3.9-6.7c-0.9-2.6-1.4-5.3-1.4-8.2c0-2.9,0.5-5.6,1.4-8.2c0.9-2.6,2.2-4.8,3.9-6.7
			c1.7-1.9,3.8-3.4,6.2-4.6c2.4-1.1,5.1-1.7,8-1.7c3,0,5.7,0.6,8.1,1.7c2.4,1.1,4.5,2.7,6.2,4.6c1.7,1.9,3.1,4.2,4,6.7
			c1,2.6,1.4,5.3,1.4,8.2C337.1,113.4,336.6,116.1,335.7,118.7z"/>
		<path class="st0" d="M464,86.2c-2.1-3.3-5.1-6-8.9-7.9c-3.9-1.9-7.8-2.9-11.7-2.9c-5.1,0-9.7,0.9-13.9,2.8
			c-4.2,1.9-7.8,4.4-10.8,7.7c-3,3.2-5.3,7-7,11.2c-1.7,4.2-2.5,8.7-2.5,13.4c0,4.8,0.8,9.3,2.5,13.5c1.7,4.2,4,7.9,7,11.2
			c3,3.2,6.6,5.8,10.8,7.7c4.2,1.9,8.8,2.8,13.9,2.8c3.9,0,7.8-1,11.7-2.9c3.9-1.9,6.8-4.5,8.9-7.9v9h15.6V77.2H464V86.2z
			 M462.5,118.7c-1,2.6-2.3,4.8-4,6.7c-1.7,1.9-3.8,3.4-6.2,4.6c-2.4,1.1-5.1,1.7-8.1,1.7c-3,0-5.6-0.6-8-1.7
			c-2.4-1.1-4.4-2.7-6.2-4.6c-1.7-1.9-3-4.2-3.9-6.7c-0.9-2.6-1.4-5.3-1.4-8.2c0-2.9,0.5-5.6,1.4-8.2c0.9-2.6,2.2-4.8,3.9-6.7
			c1.7-1.9,3.8-3.4,6.2-4.6c2.4-1.1,5.1-1.7,8-1.7c3,0,5.7,0.6,8.1,1.7c2.4,1.1,4.5,2.7,6.2,4.6c1.7,1.9,3.1,4.2,4,6.7
			c1,2.6,1.4,5.3,1.4,8.2C464,113.4,463.5,116.1,462.5,118.7z"/>
		<rect x="635.2" y="43.7" class="st0" width="15.6" height="100.2"/>
		<polygon class="st0" points="365,143.9 380.6,143.9 380.6,92.5 407.4,92.5 407.4,77.2 365,77.2 		"/>
		<polygon class="st0" points="542.1,77.2 522.5,128.3 502.9,77.2 487.1,77.2 512.7,143.9 532.3,143.9 557.9,77.2 		"/>
		<path class="st0" d="M592,75.5c-19.1,0-34.2,15.7-34.2,35.1c0,21.4,14.6,35.1,36.2,35.1c12.1,0,19.8-4.6,29.2-14.7l-10.5-8.2
			c0,0-8,10.4-19.8,10.4c-13.8,0-19.6-11.1-19.6-16.9H625C627.7,94.3,613.2,75.5,592,75.5z M573.3,104.7c0.1-1.3,1.9-16.9,18.6-16.9
			c16.7,0,18.7,15.6,18.8,16.9H573.3z"/>
	</g>
	<path class="st0" d="M184.1,42.9c0-0.1-0.1-0.2-0.1-0.2c-0.1-0.2-0.1-0.3-0.2-0.5c-0.1-0.1-0.1-0.2-0.2-0.3
		c-0.1-0.1-0.2-0.2-0.3-0.3c-0.1-0.1-0.2-0.1-0.3-0.2c-0.1-0.1-0.2-0.2-0.3-0.3c0,0,0,0,0,0c0,0,0,0,0,0L147,20.6
		c-0.9-0.5-2-0.5-3,0l-35.6,20.5c0,0,0,0,0,0c0,0,0,0,0,0c-0.1,0.1-0.2,0.2-0.3,0.3c-0.1,0.1-0.2,0.1-0.3,0.2
		c-0.1,0.1-0.2,0.2-0.3,0.3c-0.1,0.1-0.1,0.2-0.2,0.3c-0.1,0.1-0.1,0.3-0.2,0.5c0,0.1-0.1,0.2-0.1,0.2c-0.1,0.2-0.1,0.5-0.1,0.8v39
		L77.2,99.7V23.5c0-0.3,0-0.5-0.1-0.8c0-0.1-0.1-0.2-0.1-0.2c-0.1-0.2-0.1-0.3-0.2-0.5c-0.1-0.1-0.1-0.2-0.2-0.3
		c-0.1-0.1-0.2-0.2-0.3-0.3c-0.1-0.1-0.2-0.1-0.3-0.2c-0.1-0.1-0.2-0.2-0.3-0.3c0,0,0,0,0,0c0,0,0,0,0,0L40.1,0.4
		c-0.9-0.5-2-0.5-3,0L1.5,20.9c0,0,0,0,0,0c0,0,0,0,0,0c-0.1,0.1-0.2,0.2-0.3,0.3c-0.1,0.1-0.2,0.1-0.3,0.2
		c-0.1,0.1-0.2,0.2-0.3,0.3c-0.1,0.1-0.1,0.2-0.2,0.3c-0.1,0.1-0.1,0.3-0.2,0.5c0,0.1-0.1,0.2-0.1,0.2C0,23,0,23.2,0,23.5v122.1
		c0,1.1,0.6,2,1.5,2.6l71.3,41c0.2,0.1,0.3,0.1,0.5,0.2c0.1,0,0.1,0.1,0.2,0.1c0.2,0.1,0.5,0.1,0.8,0.1s0.5,0,0.8-0.1
		c0.1,0,0.1-0.1,0.2-0.1c0.2-0.1,0.4-0.1,0.5-0.2l71.3-41c0.9-0.5,1.5-1.5,1.5-2.6v-39l34.2-19.7c0.9-0.5,1.5-1.5,1.5-2.6V43.7
		C184.2,43.4,184.1,43.1,184.1,42.9z M74.3,142.2l-29.6-16.8l31.1-17.9c0,0,0,0,0,0l34.2-19.7l29.7,17.1l-21.8,12.4L74.3,142.2z
		 M142.6,65.9v33.8l-12.5-7.2l-17.2-9.9V48.8l12.5,7.2L142.6,65.9z M145.6,26.6l29.7,17.1l-29.7,17.1l-29.7-17.1L145.6,26.6z
		 M54.1,113.1l-12.5,7.2V45.7l17.2-9.9l12.5-7.2v74.5L54.1,113.1z M38.6,6.4l29.7,17.1L38.6,40.6L8.9,23.5L38.6,6.4z M5.9,28.6
		l12.5,7.2l17.2,9.9v79.7c0,0,0,0,0,0s0,0,0,0c0,0.1,0,0.2,0,0.3c0,0.1,0,0.3,0.1,0.4c0,0,0,0,0,0c0,0.1,0.1,0.2,0.1,0.3
		c0.1,0.1,0.1,0.3,0.2,0.4c0,0,0,0,0,0c0.1,0.1,0.1,0.2,0.2,0.3c0.1,0.1,0.1,0.2,0.2,0.3c0,0,0,0,0,0c0.1,0.1,0.2,0.1,0.3,0.2
		c0.1,0.1,0.2,0.2,0.3,0.2c0,0,0,0,0,0s0,0,0,0l34.1,19.3v34.2L5.9,143.9L5.9,28.6L5.9,28.6z M142.6,143.9l-65.4,37.6v-34.2
		l48.4-27.6l17-9.7V143.9z M178.2,82.6l-29.7,17.1V65.9l17.2-9.9l12.5-7.2V82.6z"/>
</g>
</svg>
